<?xml version="1.0" encoding="UTF-8"?>
<svg width="1200pt" height="1200pt" version="1.1" viewBox="0 0 1200 1200" xmlns="http://www.w3.org/2000/svg">
 <g fill="#fff">
  <path d="m553.12 1050c-12.434 0-24.355 4.9375-33.145 13.73-8.793 8.7891-13.73 20.711-13.73 33.145v18.75c0 5.1758-4.1992 9.375-9.375 9.375s-9.375-4.1992-9.375-9.375v-73.836c0-20.098-10.723-38.668-28.125-48.715s-38.848-10.047-56.25 0-28.125 28.617-28.125 48.715v17.586c0 5.1758-4.1992 9.375-9.375 9.375s-9.375-4.1992-9.375-9.375v-9.375c0-20.098-10.723-38.664-28.125-48.715-17.402-10.047-38.848-10.047-56.25 0-17.402 10.051-28.125 28.617-28.125 48.715v65.625c0 5.1758-4.1992 9.375-9.375 9.375s-9.375-4.1992-9.375-9.375v-9.375c0-20.098-10.723-38.664-28.125-48.715-17.402-10.047-38.848-10.047-56.25 0-17.402 10.051-28.125 28.617-28.125 48.715v93.75h37.5v-93.75c0-6.6992 3.5742-12.887 9.375-16.238 5.8008-3.3477 12.949-3.3477 18.75 0 5.8008 3.3516 9.375 9.5391 9.375 16.238v9.375c0 16.746 8.9336 32.223 23.438 40.594 14.504 8.375 32.371 8.375 46.875 0 14.504-8.3711 23.438-23.848 23.438-40.594v-65.625c0-6.6992 3.5742-12.887 9.375-16.238 5.8008-3.3477 12.949-3.3477 18.75 0 5.8008 3.3516 9.375 9.5391 9.375 16.238v9.375c0 16.746 8.9336 32.223 23.438 40.594 14.504 8.375 32.371 8.375 46.875 0 14.504-8.3711 23.438-23.848 23.438-40.594v-17.586c0-6.6992 3.5742-12.891 9.375-16.238 5.8008-3.3516 12.949-3.3516 18.75 0 5.8008 3.3477 9.375 9.5391 9.375 16.238v73.836c0 16.746 8.9336 32.223 23.438 40.594 14.504 8.375 32.371 8.375 46.875 0 14.504-8.3711 23.438-23.848 23.438-40.594v-18.75c0-5.1758 4.1992-9.375 9.375-9.375s9.375 4.1992 9.375 9.375v103.12h37.5v-103.12c0-12.434-4.9375-24.355-13.73-33.145-8.7891-8.793-20.711-13.73-33.145-13.73z"/>
  <path d="m487.5 412.5c-19.891 0-38.969 7.9023-53.031 21.969-14.066 14.062-21.969 33.141-21.969 53.031v225c0 26.793 14.293 51.555 37.5 64.953 23.207 13.395 51.793 13.395 75 0 23.207-13.398 37.5-38.16 37.5-64.953v-225c0-19.891-7.9023-38.969-21.969-53.031-14.062-14.066-33.141-21.969-53.031-21.969zm37.5 300c0 13.398-7.1484 25.777-18.75 32.477-11.602 6.6992-25.898 6.6992-37.5 0-11.602-6.6992-18.75-19.078-18.75-32.477v-225c0-13.398 7.1484-25.777 18.75-32.477 11.602-6.6992 25.898-6.6992 37.5 0 11.602 6.6992 18.75 19.078 18.75 32.477z"/>
  <path d="m1181.2 525c-21.605 0.023438-42.539 7.4961-59.277 21.16-16.734 13.66-28.25 32.676-32.598 53.84h-20.625c-24.855 0.03125-48.684 9.918-66.258 27.492-17.574 17.574-27.461 41.402-27.492 66.258v1.1641c-36.277 4.5977-69.621 22.305-93.75 49.781v-116.57c0.042969-58.168-11.047-115.8-32.68-169.8l-5.5117-13.742-3.4492-17.25 47.57-15.863h-0.003907c40.797-13.461 74.508-42.691 93.617-81.168l10.988-21.977c1.4688-2.9531 2.1328-6.2422 1.9258-9.5312-0.20703-3.293-1.2773-6.4727-3.1055-9.2188l-37.5-56.25c-3.1172-4.668-8.1602-7.6953-13.746-8.25-5.5898-0.52734-11.125 1.4492-15.113 5.4023l-37.5 37.5c-2.0547 2.0586-3.6016 4.5703-4.5156 7.3281-10.371 31.336-32.828 57.23-62.383 71.926l-16.875 8.457c-10.031-9.1641-21.621-16.461-34.219-21.543v-17.082c26.211-4.3906 50.016-17.938 67.18-38.227 17.168-20.289 26.582-46.008 26.57-72.586v-75h14.324c16.105 0.058594 31.91-4.3945 45.613-12.855 13.707-8.4609 24.77-20.59 31.938-35.012 2.4258-4.8633 2.6211-10.539 0.53906-15.555-2.082-5.0195-6.2422-8.8867-11.395-10.602l-27.449-9.1875 16.031-16.031c3.5195-3.5273 5.4961-8.3086 5.4883-13.289-0.007813-4.9844-2-9.7578-5.5352-13.27-3.5352-3.5117-8.3203-5.4727-13.305-5.4492h-225c-4.9727 0-9.7422 1.9766-13.258 5.4922l-32.004 32.008h-48.488c-6.2227-0.003906-12.039 3.082-15.527 8.2305-3.4922 5.1523-4.1992 11.699-1.8906 17.477l36.168 90.41v52.633c0 4.9727 1.9766 9.7422 5.4922 13.258 3.5156 3.5156 8.2852 5.4922 13.258 5.4922h1.5c4.2969 25.082 16.992 47.957 36 64.875v35.27c-10.602 5.2227-20.195 12.273-28.352 20.832l-97.5-260.01c-4.3906-11.711-13.379-21.121-24.883-26.035-11.5-4.918-24.512-4.918-36.016 0-11.5 4.9141-20.488 14.324-24.883 26.035l-105.94 282.43c-0.66797 1.918-1.0234 3.9336-1.0469 5.9648 0 0.22656-0.13281 0.41406-0.13281 0.63672v375h-20.062c-3.5508-24.934-14.227-48.309-30.742-67.316-16.52-19.012-38.176-32.844-62.371-39.84-3.0508-29.293-15.84-56.711-36.328-77.867-20.484-21.156-47.48-34.824-76.66-38.812-4.3008-31.461-19.844-60.305-43.754-81.195-23.914-20.895-54.578-32.426-86.332-32.469v37.5c24.855 0.03125 48.684 9.918 66.258 27.492 17.574 17.574 27.461 41.402 27.492 66.258 0 4.9727 1.9766 9.7422 5.4922 13.258 3.5156 3.5156 8.2852 5.4922 13.258 5.4922 25.027 0.058594 49 10.098 66.598 27.895s27.371 41.879 27.152 66.906c-0.14844 4.5391 1.3555 8.9766 4.2305 12.488 2.875 3.5156 6.9297 5.8672 11.406 6.6172 21.863 3.6172 41.723 14.895 56.035 31.812 14.309 16.918 22.137 38.371 22.078 60.531 0 4.9727 1.9766 9.7422 5.4922 13.258 3.5156 3.5156 8.2852 5.4922 13.258 5.4922h37.5v37.5c0 4.9727 1.9766 9.7422 5.4922 13.258 3.5156 3.5156 8.2852 5.4922 13.258 5.4922h18.75v75c0.003906 3.9336 1.2422 7.7656 3.543 10.957 2.3047 3.1914 5.5508 5.5742 9.2812 6.8164l112.5 37.5c1.9102 0.64844 3.9102 0.97656 5.9258 0.97656 4.9727 0 9.7422-1.9766 13.258-5.4922 3.5156-3.5156 5.4922-8.2852 5.4922-13.258v-112.5h75c0.019531 4.7695 1.8633 9.3477 5.1562 12.797s7.7812 5.5078 12.543 5.7461l-17.699 317.91c-0.28906 5.1523 1.5586 10.195 5.1055 13.941 3.5508 3.75 8.4844 5.8672 13.645 5.8594h75c4.543 0 8.9336-1.6523 12.348-4.6445 3.418-2.9961 5.6328-7.125 6.2344-11.629l12.695-95.176 6.2227 93.938c0.31641 4.7539 2.4297 9.2109 5.9102 12.465 3.4844 3.2539 8.0742 5.0586 12.84 5.0469h75c4.9727 0 9.7422-1.9766 13.258-5.4922 3.5156-3.5156 5.4922-8.2852 5.4922-13.258v-318.75c4.9727 0 9.7422-1.9766 13.258-5.4922 3.5156-3.5156 5.4922-8.2852 5.4922-13.258 0.03125-29.828 11.891-58.426 32.984-79.516 21.09-21.094 49.688-32.953 79.516-32.984 4.9727 0 9.7422-1.9766 13.258-5.4922 3.5156-3.5156 5.4922-8.2852 5.4922-13.258v-18.75c0-14.918 5.9258-29.227 16.477-39.773 10.547-10.551 24.855-16.477 39.773-16.477h37.5c4.9727 0 9.7422-1.9766 13.258-5.4922 3.5156-3.5156 5.4922-8.2852 5.4922-13.258 0-14.918 5.9258-29.227 16.477-39.773 10.547-10.551 24.855-16.477 39.773-16.477h18.75v-37.5zm-468.75-83.887c0-16.875 9.8828-28.613 18.75-28.613s18.75 11.758 18.75 30.355l35.625 382.14h-37.293zm37.5 421.39h37.5c0 6.6992-3.5742 12.887-9.375 16.238-5.8008 3.3477-12.949 3.3477-18.75 0-5.8008-3.3516-9.375-9.5391-9.375-16.238zm166.29-571.01 18.301-18.32 18.75 28.125-6.1133 12.242v0.003906c-14.695 29.551-40.59 52.008-71.926 62.379l-46.48 15.488c-0.86328-1.875-1.5742-3.75-2.5312-5.625l10.293-5.1367c37.031-18.383 65.574-50.305 79.707-89.156zm-260.04-216.49c4.9727 0 9.7422-1.9766 13.258-5.4922l32.004-32.008h171.98l-5.4922 5.4922h-0.003906c-4.5859 4.5977-6.4688 11.238-4.9766 17.559 1.4922 6.3203 6.1484 11.418 12.309 13.473l30.602 10.219c-8.4336 6.1992-18.633 9.5312-29.102 9.5078h-183.07c-4.9727 0-9.7422 1.9766-13.258 5.4922-3.5156 3.5156-5.4922 8.2852-5.4922 13.258v18.75h-24.805l-22.5-56.25zm0 112.5v-18.75h37.5c4.9727 0 9.7422-1.9766 13.258-5.4922 3.5156-3.5156 5.4922-8.2852 5.4922-13.258v-18.75h112.5v75c0.027344 19.398-7.4883 38.047-20.961 52.008-13.469 13.961-31.84 22.137-51.227 22.805h-0.1875c-0.86719 0.15625-1.7461 0.21875-2.625 0.1875-17.219-0.035156-33.906-5.9922-47.25-16.875l-0.375-0.1875c-17.305-14.27-27.34-35.512-27.375-57.938 0-4.9727-1.9766-9.7422-5.4922-13.258-3.5156-3.5156-8.2852-5.4922-13.258-5.4922zm75 129.56v7.6875l-18.75-3.1328v-9.375c6.0547 2.2852 12.344 3.9023 18.75 4.8203zm-35.625 39.75 43.125 7.1797c15.18 2.5859 29.223 9.6992 40.289 20.406 11.066 10.707 18.637 24.508 21.719 39.594l5.9453 29.625h-0.003906c0.21484 1.1289 0.53516 2.2344 0.95703 3.3008l6.1484 15.336v0.003906c19.855 49.562 30.02 102.47 29.945 155.87v196.88h-20.418l-35.832-383.89c1.1758-16.199-4.0625-32.207-14.586-44.574-10.523-12.371-25.488-20.105-41.664-21.539-31.012 0-56.25 29.664-56.25 67.855l35.625 382.14h-54.375v-409.46c-0.007812-12.594 3.7344-24.902 10.746-35.359 7.0117-10.457 16.977-18.594 28.629-23.367zm-197.18-257.66c1.4727-2.957 4.4883-4.8242 7.793-4.8242 3.3008 0 6.3203 1.8672 7.7891 4.8242l68.289 182.1h-152.14zm-82.332 219.6h180.26l14.062 37.5h-208.39zm90.133 611.48-75-24.992v-16.707l75 24.992zm0-56.25-75-24.992v-5.2344h75zm18.75-67.727h-131.25v-412.5h225v412.5zm171.07 356.25h-38.754l16.668-300h38.512c0.027344 15.625 6.5977 30.523 18.113 41.082zm128.93 0h-38.699l-16.258-243.88c14.672-0.33594 28.629-6.3945 38.895-16.879 10.27-10.484 16.031-24.562 16.062-39.238z"/>
 </g>
</svg>
