<?xml version="1.0" encoding="UTF-8"?>
<svg width="512pt" height="512pt" version="1.1" viewBox="0 0 512 512" xmlns="http://www.w3.org/2000/svg">
 <g fill="#fff">
  <path d="m236 448c-5.3047 0-10.391 2.1055-14.141 5.8594-3.7539 3.75-5.8594 8.8359-5.8594 14.141v8c0 2.2109-1.7891 4-4 4s-4-1.7891-4-4v-31.504c0-8.5742-4.5742-16.496-12-20.785-7.4258-4.2852-16.574-4.2852-24 0-7.4258 4.2891-12 12.211-12 20.785v7.5039c0 2.2109-1.7891 4-4 4s-4-1.7891-4-4v-4c0-8.5742-4.5742-16.496-12-20.785-7.4258-4.2852-16.574-4.2852-24 0-7.4258 4.2891-12 12.211-12 20.785v28c0 2.2109-1.7891 4-4 4s-4-1.7891-4-4v-4c0-8.5742-4.5742-16.496-12-20.785-7.4258-4.2852-16.574-4.2852-24 0-7.4258 4.2891-12 12.211-12 20.785v40h16v-40c0-4.418 3.582-8 8-8s8 3.582 8 8v4c0 7.1445 3.8125 13.746 10 17.32 6.1875 3.5742 13.812 3.5742 20 0 6.1875-3.5742 10-10.176 10-17.32v-28c0-4.418 3.582-8 8-8s8 3.582 8 8v4c0 7.1445 3.8125 13.746 10 17.32 6.1875 3.5742 13.812 3.5742 20 0 6.1875-3.5742 10-10.176 10-17.32v-7.5039c0-4.418 3.582-8 8-8s8 3.582 8 8v31.504c0 7.1445 3.8125 13.746 10 17.32 6.1875 3.5742 13.812 3.5742 20 0 6.1875-3.5742 10-10.176 10-17.32v-8c0-2.2109 1.7891-4 4-4s4 1.7891 4 4v44h16v-44c0-5.3047-2.1055-10.391-5.8594-14.141-3.75-3.7539-8.8359-5.8594-14.141-5.8594z"/>
  <path d="m208 176c-8.4883 0-16.625 3.3711-22.629 9.3711-6 6.0039-9.3711 14.141-9.3711 22.629v96c0 11.434 6.0977 21.996 16 27.711 9.9023 5.7188 22.098 5.7188 32 0 9.9023-5.7148 16-16.277 16-27.711v-96c0-8.4883-3.3711-16.625-9.3711-22.629-6.0039-6-14.141-9.3711-22.629-9.3711zm16 128c0 5.7148-3.0508 11-8 13.855-4.9492 2.8594-11.051 2.8594-16 0-4.9492-2.8555-8-8.1406-8-13.855v-96c0-5.7148 3.0508-11 8-13.855 4.9492-2.8594 11.051-2.8594 16 0 4.9492 2.8555 8 8.1406 8 13.855z"/>
  <path d="m504 224c-9.2188 0.011719-18.152 3.1992-25.293 9.0273s-12.051 13.941-13.906 22.973h-8.8008c-10.605 0.011719-20.773 4.2305-28.27 11.73-7.5 7.4961-11.719 17.664-11.73 28.27v0.49609c-15.477 1.9609-29.703 9.5156-40 21.238v-49.734c0.019531-24.816-4.7148-49.41-13.945-72.449l-2.3516-5.8633-1.4727-7.3594 20.297-6.7695c17.406-5.7422 31.793-18.215 39.945-34.629l4.6875-9.375v-0.003907c1.2773-2.5625 1.0859-5.6133-0.50391-8l-16-24c-1.3281-1.9922-3.4805-3.2812-5.8633-3.5195-2.3867-0.22656-4.7461 0.61719-6.4492 2.3047l-16 16c-0.875 0.87891-1.5352 1.9492-1.9297 3.1289-4.4219 13.367-14.004 24.418-26.613 30.688l-7.1992 3.6094c-4.2812-3.9102-9.2266-7.0234-14.602-9.1953v-7.2852c11.184-1.875 21.34-7.6562 28.664-16.312 7.3242-8.6562 11.34-19.629 11.336-30.969v-32h6.1133c6.8711 0.023438 13.613-1.875 19.461-5.4844 5.8477-3.6094 10.566-8.7852 13.625-14.941 1.0352-2.0742 1.1172-4.4922 0.23047-6.6328-0.89063-2.1445-2.6641-3.793-4.8633-4.5273l-11.711-3.9219 6.8398-6.8398v0.003906c2.293-2.293 2.9766-5.7422 1.7266-8.7344-1.25-2.9961-4.1797-4.9375-7.4219-4.9219h-96c-2.1211 0-4.1562 0.84375-5.6562 2.3438l-13.656 13.656h-20.688c-2.6562 0-5.1367 1.3164-6.625 3.5117-1.4883 2.1992-1.793 4.9922-0.80859 7.457l15.434 38.574v22.457c0 2.1211 0.84375 4.1562 2.3438 5.6562s3.5352 2.3438 5.6562 2.3438h0.64062c1.832 10.703 7.25 20.461 15.359 27.68v15.047c-4.5234 2.2305-8.6172 5.2383-12.098 8.8906l-41.602-110.94h0.003907c-1.875-4.9961-5.7109-9.0117-10.617-11.109-4.9062-2.0977-10.461-2.0977-15.367 0-4.9062 2.0977-8.7422 6.1133-10.617 11.109l-45.199 120.5c-0.28516 0.82031-0.4375 1.6797-0.44922 2.543 0 0.097657-0.054688 0.17578-0.054688 0.27344v160h-8.5586c-1.5156-10.637-6.0703-20.613-13.117-28.723-7.0508-8.1094-16.289-14.012-26.613-16.996-1.3008-12.5-6.7578-24.199-15.5-33.227-8.7383-9.0234-20.258-14.855-32.707-16.559-1.8359-13.422-8.4688-25.73-18.668-34.645-10.203-8.9141-23.289-13.832-36.836-13.852v16c10.605 0.011719 20.773 4.2305 28.27 11.73 7.5 7.4961 11.719 17.664 11.73 28.27 0 2.1211 0.84375 4.1562 2.3438 5.6562s3.5352 2.3438 5.6562 2.3438c10.68 0.023438 20.906 4.3086 28.414 11.902 7.5117 7.5938 11.68 17.867 11.586 28.547-0.13281 4.0039 2.7188 7.4883 6.6719 8.1523 9.3281 1.543 17.801 6.3516 23.906 13.57s9.4453 16.375 9.4219 25.828c0 2.1211 0.84375 4.1562 2.3438 5.6562s3.5352 2.3438 5.6562 2.3438h16v16c0 2.1211 0.84375 4.1562 2.3438 5.6562s3.5352 2.3438 5.6562 2.3438h8v32c0.003906 3.4414 2.207 6.4961 5.4727 7.5859l48 16c0.8125 0.27344 1.668 0.41406 2.5273 0.41406 2.1211 0 4.1562-0.84375 5.6562-2.3438s2.3438-3.5352 2.3438-5.6562v-48h32c0.015625 4.2266 3.332 7.6992 7.5508 7.9102l-7.5508 135.64c-0.125 2.1992 0.66406 4.3516 2.1797 5.9492 1.5117 1.5977 3.6172 2.5039 5.8203 2.5h32c4.0078 0 7.3984-2.9688 7.9297-6.9453l5.4141-40.609 2.6562 40.082c0.27734 4.2109 3.7812 7.4805 8 7.4727h32c2.1211 0 4.1562-0.84375 5.6562-2.3438s2.3438-3.5352 2.3438-5.6562v-136c2.1211 0 4.1562-0.84375 5.6562-2.3438s2.3438-3.5352 2.3438-5.6562c0.011719-12.727 5.0742-24.93 14.074-33.926 8.9961-9 21.199-14.062 33.926-14.074 2.1211 0 4.1562-0.84375 5.6562-2.3438s2.3438-3.5352 2.3438-5.6562v-8c0-6.3633 2.5273-12.469 7.0312-16.969 4.5-4.5039 10.605-7.0312 16.969-7.0312h16c2.1211 0 4.1562-0.84375 5.6562-2.3438s2.3438-3.5352 2.3438-5.6562c0-6.3633 2.5273-12.469 7.0312-16.969 4.5-4.5039 10.605-7.0312 16.969-7.0312h8v-16zm-200-35.793c0-7.1992 4.2148-12.207 8-12.207s8 5.0156 8 12.953l15.199 163.05h-15.91zm16 179.79h16c0 4.418-3.582 8-8 8s-8-3.582-8-8zm70.953-243.63 7.8086-7.8164 8 12-2.6094 5.2227v0.003906c-6.2695 12.609-17.32 22.191-30.688 26.613l-19.832 6.6094c-0.36719-0.80078-0.67187-1.6016-1.0781-2.3984l4.3906-2.1914v-0.003906c15.797-7.8398 27.977-21.461 34.008-38.039zm-110.95-92.367c2.1211 0 4.1562-0.84375 5.6562-2.3438l13.656-13.656h73.375l-2.3438 2.3438c-1.957 1.9609-2.7617 4.7969-2.125 7.4922 0.63672 2.6953 2.625 4.8711 5.2539 5.75l13.055 4.3594c-3.5977 2.6445-7.9492 4.0664-12.414 4.0547h-78.113c-4.418 0-8 3.582-8 8v8h-10.586l-9.6016-24zm0 48v-8h16c2.1211 0 4.1562-0.84375 5.6562-2.3438s2.3438-3.5352 2.3438-5.6562v-8h48v32c0.011719 8.2773-3.1953 16.234-8.9414 22.191-5.75 5.957-13.586 9.4453-21.859 9.7305h-0.078125c-0.37109 0.066406-0.74609 0.089844-1.1211 0.078125-7.3477-0.015625-14.465-2.5586-20.16-7.1992l-0.16016-0.078125v-0.003906c-7.3828-6.0859-11.664-15.148-11.68-24.719 0-2.1211-0.84375-4.1562-2.3438-5.6562s-3.5352-2.3438-5.6562-2.3438zm32 55.281v3.2812l-8-1.3359v-4.0039c2.582 0.97656 5.2656 1.6641 8 2.0586zm-15.199 16.961 18.398 3.0625c6.4766 1.1016 12.469 4.1367 17.191 8.7031 4.7188 4.5703 7.9492 10.461 9.2656 16.895l2.5352 12.641c0.09375 0.48047 0.23047 0.95312 0.41016 1.4102l2.625 6.543h-0.003906c8.4727 21.148 12.809 43.723 12.777 66.504v84h-8.7109l-15.289-163.79c0.5-6.9102-1.7344-13.742-6.2227-19.02-4.4922-5.2734-10.875-8.5742-17.777-9.1875-13.23 0-24 12.656-24 28.953l15.199 163.05h-23.199v-174.7c-0.003906-5.375 1.5938-10.625 4.5859-15.086 2.9922-4.4609 7.2422-7.9336 12.215-9.9727zm-84.129-109.94c0.62891-1.2617 1.9141-2.0586 3.3242-2.0586s2.6953 0.79688 3.3242 2.0586l29.137 77.695h-64.914zm-35.129 93.695h76.91l6 16h-88.91zm38.457 260.89-32-10.664v-7.1289l32 10.664zm0-24-32-10.664v-2.2305h32zm8-28.895h-56v-176h96v176zm72.992 152h-16.535l7.1133-128h16.43c0.011719 6.668 2.8164 13.023 7.7266 17.527zm55.008 0h-16.512l-6.9375-104.05c6.2617-0.14453 12.215-2.7305 16.598-7.2031 4.3789-4.4727 6.8398-10.48 6.8516-16.742z"/>
 </g>
</svg>
