<?xml version="1.0" encoding="UTF-8"?>
<svg width="100pt" height="100pt" version="1.1" viewBox="0 0 100 100" xmlns="http://www.w3.org/2000/svg">
 <g fill="#fff">
  <path d="m46.094 87.5c-2.1562 0-3.9062 1.75-3.9062 3.9062v1.5625c0 0.42969-0.35156 0.78125-0.78125 0.78125s-0.78125-0.35156-0.78125-0.78125v-6.1523c0-2.5898-2.0977-4.6875-4.6875-4.6875s-4.6875 2.0977-4.6875 4.6875v1.4648c0 0.42969-0.35156 0.78125-0.78125 0.78125s-0.78125-0.35156-0.78125-0.78125v-0.78125c0-2.5898-2.0977-4.6875-4.6875-4.6875s-4.6875 2.0977-4.6875 4.6875v5.4688c0 0.42969-0.35156 0.78125-0.78125 0.78125s-0.78125-0.35156-0.78125-0.78125v-0.78125c0-2.5898-2.0977-4.6875-4.6875-4.6875s-4.6875 2.0977-4.6875 4.6875v7.8125h3.125v-7.8125c0-0.86328 0.69922-1.5625 1.5625-1.5625s1.5625 0.69922 1.5625 1.5625v0.78125c0 2.1562 1.75 3.9062 3.9062 3.9062s3.9062-1.75 3.9062-3.9062v-5.4688c0-0.86328 0.69922-1.5625 1.5625-1.5625s1.5625 0.69922 1.5625 1.5625v0.78125c0 2.1562 1.75 3.9062 3.9062 3.9062s3.9062-1.75 3.9062-3.9062v-1.4648c0-0.86328 0.69922-1.5625 1.5625-1.5625s1.5625 0.69922 1.5625 1.5625v6.1523c0 2.1562 1.75 3.9062 3.9062 3.9062s3.9062-1.75 3.9062-3.9062v-1.5625c0-0.42969 0.35156-0.78125 0.78125-0.78125s0.78125 0.35156 0.78125 0.78125v8.5938h3.125v-8.5938c0-1.0352-0.41016-2.0312-1.1445-2.7617-0.73047-0.73438-1.7266-1.1445-2.7617-1.1445z"/>
  <path d="m40.625 34.375c-3.4531 0-6.25 2.7969-6.25 6.25v18.75c0 3.4531 2.7969 6.25 6.25 6.25s6.25-2.7969 6.25-6.25v-18.75c0-1.6562-0.66016-3.2461-1.832-4.418s-2.7617-1.832-4.418-1.832zm3.125 25c0 1.7266-1.3984 3.125-3.125 3.125s-3.125-1.3984-3.125-3.125v-18.75c0-1.7266 1.3984-3.125 3.125-3.125s3.125 1.3984 3.125 3.125z"/>
  <path d="m98.438 43.75c-3.7109 0.003906-6.9102 2.6133-7.6562 6.25h-1.7188c-4.3125 0.003906-7.8086 3.5-7.8125 7.8125v0.097656c-3.0234 0.38281-5.8008 1.8594-7.8125 4.1484v-9.7148c0.003906-4.8477-0.92188-9.6523-2.7227-14.148l-0.46094-1.1445-0.28906-1.4375 3.9648-1.3203v-0.003907c3.4023-1.1211 6.2109-3.5586 7.8047-6.7656l0.91406-1.832v0.003906c0.25-0.50391 0.21094-1.0977-0.097657-1.5625l-3.125-4.6875c-0.26172-0.39062-0.67969-0.64453-1.1445-0.6875-0.46875-0.046874-0.92969 0.12109-1.2617 0.44922l-3.125 3.125c-0.17188 0.17188-0.30078 0.37891-0.375 0.60938-0.86328 2.6133-2.7383 4.7695-5.1992 5.9961l-1.4062 0.70312c-0.83594-0.76172-1.8008-1.3711-2.8516-1.7969v-1.4219c4.5117-0.75781 7.8125-4.6602 7.8125-9.2344v-6.25h1.1953c2.7383 0.011719 5.2422-1.5352 6.4609-3.9883 0.20312-0.40625 0.21875-0.87891 0.042969-1.2969-0.17188-0.41797-0.51953-0.74219-0.94922-0.88281l-2.2891-0.76562 1.3359-1.3359h0.003906c0.44531-0.44922 0.58203-1.1211 0.33594-1.707-0.24219-0.58594-0.81641-0.96484-1.4492-0.96094h-18.75c-0.41406 0-0.8125 0.16406-1.1055 0.45703l-2.668 2.668h-4.0391c-0.51953 0-1.0039 0.25781-1.293 0.6875-0.29297 0.42578-0.35156 0.97266-0.16016 1.4531l3.0156 7.5352v4.3867c0 0.41406 0.16406 0.8125 0.45703 1.1055s0.69141 0.45703 1.1055 0.45703h0.125c0.35938 2.0898 1.4141 3.9961 3 5.4062v2.9375c-0.88281 0.4375-1.6836 1.0234-2.3633 1.7383l-8.125-21.668c-0.55859-1.4883-1.9805-2.4766-3.5742-2.4766-1.5898 0-3.0156 0.98828-3.5742 2.4766l-8.8281 23.535c-0.054687 0.16016-0.085937 0.32812-0.085937 0.49609 0 0.019532-0.011719 0.035157-0.011719 0.054688v31.25h-1.6719c-0.60547-4.2422-3.6406-7.7383-7.7578-8.9297-0.52344-5.0234-4.4141-9.0391-9.418-9.7227-0.74219-5.4219-5.3672-9.4648-10.84-9.4727v3.125c4.3125 0.003906 7.8086 3.5 7.8125 7.8125 0 0.41406 0.16406 0.8125 0.45703 1.1055s0.69141 0.45703 1.1055 0.45703c2.0859 0.003906 4.082 0.83984 5.5508 2.3242 1.4648 1.4844 2.2812 3.4883 2.2617 5.5742-0.027344 0.78516 0.53125 1.4648 1.3047 1.5938 3.7617 0.62109 6.5195 3.8828 6.5078 7.6953 0 0.41406 0.16406 0.8125 0.45703 1.1055s0.69141 0.45703 1.1055 0.45703h3.125v3.125c0 0.41406 0.16406 0.8125 0.45703 1.1055s0.69141 0.45703 1.1055 0.45703h1.5625v6.25c0 0.67188 0.42969 1.2695 1.0703 1.4805l9.375 3.125c0.15625 0.054687 0.32422 0.082031 0.49219 0.082031 0.41406 0 0.8125-0.16406 1.1055-0.45703s0.45703-0.69141 0.45703-1.1055v-9.375h6.25c0.003906 0.82422 0.65234 1.5039 1.4766 1.5469l-1.4766 26.492c-0.023438 0.42969 0.12891 0.84766 0.42578 1.1602s0.70703 0.48828 1.1367 0.48828h6.25c0.78125 0 1.4453-0.57812 1.5469-1.3555l1.0586-7.9297 0.51953 7.8242c0.054688 0.82422 0.73828 1.4609 1.5625 1.4609h6.25c0.41406 0 0.8125-0.16406 1.1055-0.45703s0.45703-0.69141 0.45703-1.1055v-26.562c0.41406 0 0.8125-0.16406 1.1055-0.45703s0.45703-0.69141 0.45703-1.1055c0.003906-5.1758 4.1992-9.3711 9.375-9.375 0.41406 0 0.8125-0.16406 1.1055-0.45703s0.45703-0.69141 0.45703-1.1055v-1.5625c0-2.5898 2.0977-4.6875 4.6875-4.6875h3.125c0.41406 0 0.8125-0.16406 1.1055-0.45703s0.45703-0.69141 0.45703-1.1055c0-2.5898 2.0977-4.6875 4.6875-4.6875h1.5625v-3.125zm-39.062-6.9922c0-1.4062 0.82422-2.3828 1.5625-2.3828s1.5625 0.98047 1.5625 2.5312l2.9688 31.844h-3.1094zm3.125 35.117h3.125c0 0.86328-0.69922 1.5625-1.5625 1.5625s-1.5625-0.69922-1.5625-1.5625zm13.859-47.586 1.5234-1.5273 1.5625 2.3438-0.50781 1.0195v0.003906c-1.2266 2.4609-3.3828 4.332-5.9961 5.1992l-3.875 1.2891c-0.070312-0.15625-0.13281-0.3125-0.21094-0.46875l0.85938-0.42969c3.0859-1.5312 5.4648-4.1914 6.6445-7.4297zm-21.672-18.039c0.41406 0 0.8125-0.16406 1.1055-0.45703l2.668-2.668h14.332l-0.45703 0.45703h-0.003907c-0.38281 0.38281-0.53906 0.9375-0.41406 1.4648s0.51172 0.94922 1.0273 1.1211l2.5508 0.85156h-0.003906c-0.70313 0.51562-1.5508 0.79688-2.4219 0.79297h-15.258c-0.86328 0-1.5625 0.69922-1.5625 1.5625v1.5625h-2.0664l-1.875-4.6875zm0 9.375v-1.5625h3.125c0.41406 0 0.8125-0.16406 1.1055-0.45703s0.45703-0.69141 0.45703-1.1055v-1.5625h9.375v6.25c0.003906 3.3594-2.6562 6.1172-6.0156 6.2344h-0.015625c-0.070312 0.011719-0.14453 0.019531-0.21875 0.015625-1.4336-0.003906-2.8242-0.5-3.9375-1.4062l-0.03125-0.015625c-1.4414-1.1875-2.2773-2.9609-2.2812-4.8281 0-0.41406-0.16406-0.8125-0.45703-1.1055s-0.69141-0.45703-1.1055-0.45703zm6.25 10.797v0.64062l-1.5625-0.26172v-0.78125c0.50391 0.19141 1.0273 0.32422 1.5625 0.40234zm-2.9688 3.3125 3.5938 0.59766c2.5898 0.44141 4.6406 2.4258 5.168 5l0.49609 2.4688c0.015626 0.09375 0.042969 0.1875 0.078126 0.27734l0.51172 1.2773c1.6562 4.1289 2.5039 8.5391 2.4961 12.988v16.406h-1.7031l-2.9844-31.992c0.20312-2.8086-1.8828-5.2578-4.6875-5.5078-2.5859 0-4.6875 2.4727-4.6875 5.6562l2.9688 31.844h-4.5312v-34.121c0-2.1484 1.2969-4.082 3.2812-4.8945zm-16.43-21.473c0.12109-0.24609 0.37109-0.40234 0.64844-0.40234 0.27344 0 0.52734 0.15625 0.64844 0.40234l5.6914 15.176h-12.68zm-6.8633 18.301h15.023l1.1719 3.125h-17.367zm7.5117 50.957-6.25-2.082v-1.3906l6.25 2.082zm0-4.6875-6.25-2.082v-0.4375h6.25zm1.5625-5.6445h-10.938v-34.375h18.75v34.375zm14.258 29.688h-3.2305l1.3906-25h3.207c0.003906 1.3008 0.55078 2.543 1.5078 3.4219zm10.742 0h-3.2266l-1.3555-20.324h0.003906c2.5391-0.058593 4.5742-2.1328 4.5781-4.6758z"/>
 </g>
</svg>
